name rise30.6535peak61.5555fall82.9339.mot
datacolumns 19
datarows 18
range 19.69658300000000 19.72492300000000
endheader
time	ground_force1_vx	ground_force1_vy	ground_force1_vz	ground_force1_px	ground_force1_py	ground_force1_pz	ground_force2_vx	ground_force2_vy	ground_force2_vz	ground_force2_px	ground_force2_py	ground_force2_pz	ground_torque1_x	ground_torque1_y	ground_torque1_z	ground_torque2_x	ground_torque2_y	ground_torque2_z	
19.69658300000000	9.51245500000000	706.49574600000005	45.40262100000000	0.25439100000000	0.00000000000000	0.12476800000000	0.00000000000000	0.00000000000000	0.00000000000000	0.00000000000000	0.00000000000000	0.00000000000000	0.00000000000000	20.69710800000000	0.00000000000000	0.00000000000000	0.00000000000000	0.00000000000000	
19.69825600000000	9.10912500000000	707.08070999999995	45.37410100000000	0.25371000000000	0.00000000000000	0.12470100000000	0.00000000000000	0.00000000000000	0.00000000000000	0.00000000000000	0.00000000000000	0.00000000000000	0.00000000000000	20.73515800000000	0.00000000000000	0.00000000000000	0.00000000000000	0.00000000000000	
19.69992500000000	8.69545100000000	707.70278699999994	45.35042000000000	0.25301500000000	0.00000000000000	0.12463600000000	0.00000000000000	0.00000000000000	0.00000000000000	0.00000000000000	0.00000000000000	0.00000000000000	0.00000000000000	20.77913400000000	0.00000000000000	0.00000000000000	0.00000000000000	0.00000000000000	
19.70158300000000	8.27121300000000	708.36208099999999	45.33150500000000	0.25230700000000	0.00000000000000	0.12457300000000	0.00000000000000	0.00000000000000	0.00000000000000	0.00000000000000	0.00000000000000	0.00000000000000	0.00000000000000	20.82896900000000	0.00000000000000	0.00000000000000	0.00000000000000	0.00000000000000	
19.70325400000000	7.83622500000000	709.05870800000002	45.31728500000000	0.25158300000000	0.00000000000000	0.12451200000000	0.00000000000000	0.00000000000000	0.00000000000000	0.00000000000000	0.00000000000000	0.00000000000000	0.00000000000000	20.88459200000000	0.00000000000000	0.00000000000000	0.00000000000000	0.00000000000000	
19.70492400000000	7.39033900000000	709.79278199999999	45.30769600000000	0.25084300000000	0.00000000000000	0.12445300000000	0.00000000000000	0.00000000000000	0.00000000000000	0.00000000000000	0.00000000000000	0.00000000000000	0.00000000000000	20.94592200000000	0.00000000000000	0.00000000000000	0.00000000000000	0.00000000000000	
19.70659800000000	6.93344200000000	710.56442000000004	45.30267400000000	0.25008700000000	0.00000000000000	0.12439700000000	0.00000000000000	0.00000000000000	0.00000000000000	0.00000000000000	0.00000000000000	0.00000000000000	0.00000000000000	21.01287700000000	0.00000000000000	0.00000000000000	0.00000000000000	0.00000000000000	
19.70825100000000	6.46546000000000	711.37373000000002	45.30216100000000	0.24931200000000	0.00000000000000	0.12434300000000	0.00000000000000	0.00000000000000	0.00000000000000	0.00000000000000	0.00000000000000	0.00000000000000	0.00000000000000	21.08536700000000	0.00000000000000	0.00000000000000	0.00000000000000	0.00000000000000	
19.70992500000000	5.98635700000000	712.22081500000002	45.30610000000000	0.24851900000000	0.00000000000000	0.12429100000000	0.00000000000000	0.00000000000000	0.00000000000000	0.00000000000000	0.00000000000000	0.00000000000000	0.00000000000000	21.16329500000000	0.00000000000000	0.00000000000000	0.00000000000000	0.00000000000000	
19.71158300000000	5.49613600000000	713.10576000000003	45.31443800000000	0.24770800000000	0.00000000000000	0.12424200000000	0.00000000000000	0.00000000000000	0.00000000000000	0.00000000000000	0.00000000000000	0.00000000000000	0.00000000000000	21.24656000000000	0.00000000000000	0.00000000000000	0.00000000000000	0.00000000000000	
19.71325000000000	4.99484000000000	714.02863300000001	45.32712600000000	0.24687800000000	0.00000000000000	0.12419500000000	0.00000000000000	0.00000000000000	0.00000000000000	0.00000000000000	0.00000000000000	0.00000000000000	0.00000000000000	21.33505300000000	0.00000000000000	0.00000000000000	0.00000000000000	0.00000000000000	
19.71491800000000	4.48255000000000	714.98947999999996	45.34411500000000	0.24602900000000	0.00000000000000	0.12415000000000	0.00000000000000	0.00000000000000	0.00000000000000	0.00000000000000	0.00000000000000	0.00000000000000	0.00000000000000	21.42866100000000	0.00000000000000	0.00000000000000	0.00000000000000	0.00000000000000	
19.71658500000000	3.95938900000000	715.98831700000005	45.36535900000000	0.24516100000000	0.00000000000000	0.12410800000000	0.00000000000000	0.00000000000000	0.00000000000000	0.00000000000000	0.00000000000000	0.00000000000000	0.00000000000000	21.52726400000000	0.00000000000000	0.00000000000000	0.00000000000000	0.00000000000000	
19.71824900000000	3.42551700000000	717.02512700000000	45.39081700000000	0.24427400000000	0.00000000000000	0.12406900000000	0.00000000000000	0.00000000000000	0.00000000000000	0.00000000000000	0.00000000000000	0.00000000000000	0.00000000000000	21.63073300000000	0.00000000000000	0.00000000000000	0.00000000000000	0.00000000000000	
19.71991800000000	2.88113500000000	718.09985900000004	45.42044600000000	0.24336900000000	0.00000000000000	0.12403200000000	0.00000000000000	0.00000000000000	0.00000000000000	0.00000000000000	0.00000000000000	0.00000000000000	0.00000000000000	21.73893700000000	0.00000000000000	0.00000000000000	0.00000000000000	0.00000000000000	
19.72159500000000	2.32648100000000	719.21241799999996	45.45420700000000	0.24244600000000	0.00000000000000	0.12399700000000	0.00000000000000	0.00000000000000	0.00000000000000	0.00000000000000	0.00000000000000	0.00000000000000	0.00000000000000	21.85173600000000	0.00000000000000	0.00000000000000	0.00000000000000	0.00000000000000	
19.72325300000000	1.76183200000000	720.36266100000000	45.49206300000000	0.24150600000000	0.00000000000000	0.12396400000000	0.00000000000000	0.00000000000000	0.00000000000000	0.00000000000000	0.00000000000000	0.00000000000000	0.00000000000000	21.96898200000000	0.00000000000000	0.00000000000000	0.00000000000000	0.00000000000000	
19.72492300000000	1.18750400000000	721.55039899999997	45.53397700000000	0.24054900000000	0.00000000000000	0.12393400000000	0.00000000000000	0.00000000000000	0.00000000000000	0.00000000000000	0.00000000000000	0.00000000000000	0.00000000000000	22.09052400000000	0.00000000000000	0.00000000000000	0.00000000000000	0.00000000000000	
